<svg width="147" height="30" viewBox="0 0 147 30" fill="none" xmlns="http://www.w3.org/2000/svg">
<path d="M4.71429 5.50332L4 6.49234C4.44218 6.83339 5.22449 7.14032 6.0068 6.9357C6.48299 7.31085 7.20862 7.25401 7.57143 7.24264C7.51474 7.83378 7.43537 9.73907 7.57143 12.6311C7.70748 15.5232 9.80499 17.4967 10.8367 18.1219L9.95238 22.078L10.8367 26H12.8095L12.0612 22.078L12.8095 18.1219L14.5102 26H16.517L14.8503 18.1219H19.1361L17.4694 26H19.5102L21.1769 18.1219L21.9592 22.078L21.1769 26H23.2177L24 22.078L23.1837 18.1219C23.3537 17.6786 23.4442 17.5054 23.5578 17.0306C24.1701 14.4727 23.0136 12.4038 22.3333 11.6421L20.7007 9.97098C19.9864 9.25479 18.7619 9.22069 17.9796 9.86867C17.4045 10.345 17.0788 10.3713 16.517 9.86867C16.2789 9.66404 15.6903 8.97337 14.9184 8.33397C14.1361 7.68599 12.7755 7.95883 12.2653 8.5045L9.95238 10.8236V4.61661L10.4 4C8.92608 4.29557 5.92517 4.77349 5.59864 4.85534C5.27211 4.93719 4.87302 5.32143 4.71429 5.50332Z" fill="#4215CC"/>
<path d="M7.29541 5.51434L7.7716 5.05579L8.24779 5.51434L7.7716 6.00817L7.29541 5.51434Z" fill="white"/>
<path d="M29.3335 17.8095C29.3335 15.6657 30.0116 13.9047 31.3679 12.5266C32.0023 11.8776 32.7387 11.3599 33.5773 10.9735C34.9992 10.3245 36.6508 10 38.5321 10C39.5092 10 40.3732 10.0766 41.1243 10.2297C41.8753 10.3755 42.7613 10.6526 43.7821 11.061L43.9134 11.3016C43.7603 11.9505 43.5889 13.0954 43.3993 14.736H42.5243L42.4149 12.811C41.8826 12.3078 41.3977 11.9578 40.9602 11.761C40.2165 11.4255 39.3743 11.2578 38.4336 11.2578C36.4138 11.2578 34.8862 11.9688 33.8507 13.3907C33.0778 14.448 32.6914 15.8152 32.6914 17.4923C32.6914 19.4465 33.1945 21.0397 34.2007 22.272C35.4112 23.7596 37.0846 24.5033 39.2211 24.5033C40.6795 24.5033 42.1342 24.1205 43.5852 23.3549L43.8478 23.6283L43.3556 24.7221C42.7285 25.0648 42.2035 25.3054 41.7805 25.444C40.7451 25.7867 39.5894 25.958 38.3133 25.958C36.432 25.958 34.806 25.6153 33.4351 24.9299C32.4945 24.4632 31.6851 23.8142 31.007 22.983C29.8913 21.6121 29.3335 19.8876 29.3335 17.8095Z" fill="#4215CC"/>
<path d="M45.2488 25.958V24.8096L45.916 24.7439C46.4046 24.7002 46.8238 24.2518 47.1738 23.3986L51.2317 13.5875L52.5114 10.2078H54.0974L59.8943 23.7596C60.1495 24.3429 60.5615 24.671 61.1303 24.7439L61.6662 24.8096V25.958C59.712 25.9143 58.5483 25.958 58.1472 25.958C57.7024 25.958 56.551 25.9143 54.7208 25.958V24.8096L55.913 24.7439C56.037 24.7367 56.1391 24.6747 56.2193 24.558C56.3068 24.4413 56.3505 24.3028 56.3505 24.1424C56.3505 23.9382 56.3068 23.7304 56.2193 23.5189L55.213 20.9595H49.5911L48.6504 23.4642C48.5848 23.6538 48.552 23.8398 48.552 24.0221C48.552 24.2189 48.6103 24.3866 48.727 24.5252C48.8509 24.6637 49.0077 24.7367 49.1973 24.7439L50.3129 24.8096V25.9595C49.7442 25.9449 49.2848 25.9659 49.0004 25.9586C48.3952 25.9367 47.982 25.958 47.756 25.958H45.2488ZM50.1379 19.7017H54.6989L52.3692 14.0141L50.1379 19.7017Z" fill="#4215CC"/>
<path d="M62.936 25.958V24.8096L63.7673 24.7439C64.2048 24.7075 64.4855 24.6163 64.6095 24.4705C64.7626 24.2955 64.8392 23.6538 64.8392 22.5455V13.4125C64.8392 12.4136 64.7845 11.8084 64.6751 11.5969C64.573 11.3781 64.2704 11.2505 63.7673 11.2141L62.936 11.1485V10.3172L64.0735 10.35C64.8173 10.3719 65.2439 10.3828 65.3532 10.3828H65.6267L68.3173 10.3172C69.1632 12.1547 69.721 13.3579 69.9908 13.9266L73.5346 21.3205L77.6253 12.8438C77.8295 12.4427 78.1977 11.6005 78.73 10.3172C80.2831 10.3609 81.1399 10.3828 81.3003 10.3828C81.468 10.3828 82.3358 10.3609 83.9035 10.3172V11.1485L83.0722 11.2141C82.6347 11.2505 82.3503 11.3417 82.2191 11.4875C82.0733 11.6625 82.0003 12.3042 82.0003 13.4125V22.5455C82.0003 23.5517 82.0477 24.1497 82.1425 24.3393C82.2373 24.5215 82.5472 24.6346 83.0722 24.6783L83.9035 24.7439V25.958C82.2337 25.9143 81.0838 25.958 80.4275 25.958C79.764 25.958 78.5914 25.9143 76.9362 25.958V24.7439L77.7675 24.6783C78.2341 24.6419 78.5222 24.5617 78.6315 24.4377C78.7701 24.2846 78.8394 23.6538 78.8394 22.5455V13.2266L74.2237 22.8408C73.6403 24.0512 73.1919 25.0356 72.8783 25.794H72.1236C71.7299 24.8606 71.4601 24.2408 71.3143 23.9346L66.1626 13.2047V22.5455C66.1626 23.5444 66.2137 24.1533 66.3158 24.3721C66.4178 24.5835 66.7241 24.7075 67.2345 24.7439L68.0658 24.8096V25.958C66.7384 25.958 65.9169 25.958 65.494 25.958C65.0638 25.958 64.2413 25.9143 62.936 25.958Z" fill="#4215CC"/>
<path d="M85.6228 11.1485V10.3172C87.6207 10.3609 89.028 10.3828 89.8447 10.3828C90.5301 10.3828 91.4999 10.3682 92.7541 10.3391C93.826 10.3172 94.6318 10.3063 95.1713 10.3063C95.9151 10.3063 96.6224 10.3318 97.2932 10.3828L97.4245 10.5359L97.1182 13.7297H96.3089L96.1339 12.0453C96.1193 11.9287 95.9005 11.8302 95.4776 11.75C95.062 11.6625 94.5552 11.6188 93.9573 11.6188C92.7979 11.6188 91.7078 11.6406 90.6869 11.6844V17.0657C91.0661 17.0949 91.5656 17.1095 92.1854 17.1095H93.6619C94.1432 17.1095 94.4713 17.0767 94.6463 17.011C94.8213 16.9454 94.9198 16.8214 94.9417 16.6392L95.0729 15.3594H95.9698C95.9625 15.7167 95.9552 15.9865 95.9479 16.1688C95.9188 16.9053 95.9042 17.3537 95.9042 17.5142C95.9042 17.6381 95.9042 17.7183 95.9042 17.7548L95.9698 20.172H95.0729L94.9417 19.0564C94.9052 18.7574 94.7885 18.5459 94.5916 18.422C94.3948 18.2907 94.0849 18.2251 93.6619 18.2251H92.1854C91.7406 18.2251 91.2411 18.247 90.6869 18.2907V24.2736C91.7807 24.332 92.7614 24.3611 93.6291 24.3611C94.7521 24.3611 95.6161 24.2481 96.2214 24.0221C96.2578 24.0075 96.2797 23.9892 96.287 23.9674L96.8011 21.8564H97.6761L97.4245 25.4002L97.3611 25.9688C96.3183 26.0344 95.1828 25.9762 94.1255 25.9762C93.0171 25.9762 91.8145 26.0109 90.5165 25.9671C89.9113 25.9452 89.4354 25.958 89.0854 25.958C88.5823 25.958 87.7009 25.9143 86.3665 25.958V25.1268L87.0775 24.7221C87.3765 24.5544 87.5259 24.1278 87.5259 23.4424V13.4125C87.5259 12.4136 87.4712 11.8084 87.3619 11.5969C87.2598 11.3854 86.9572 11.2578 86.454 11.2141L85.6228 11.1485Z" fill="#4215CC"/>
<path d="M99.3167 11.2141V10.3172C101.118 10.3609 102.277 10.3828 102.795 10.3828C103.305 10.3828 104.468 10.3609 106.284 10.3172V11.2141L105.453 11.2797C104.979 11.3162 104.687 11.3964 104.578 11.5203C104.446 11.6808 104.381 12.3115 104.381 13.4125V24.2736C105.438 24.332 106.419 24.3611 107.323 24.3611C108.468 24.3611 109.332 24.2481 109.915 24.0221C109.952 24.0075 109.974 23.9892 109.981 23.9674L110.495 21.6814H111.334L111.118 25.4002L110.988 25.9671C109.945 26.0327 108.872 25.9671 107.815 25.9671C106.706 25.9671 105.566 26.0109 104.268 25.9671C103.663 25.9452 103.124 25.9671 102.774 25.9671C102.271 25.9671 101.395 25.9234 100.06 25.9671V25.1268L100.771 24.7221C101.07 24.5544 101.22 24.1314 101.22 23.4533V13.4125C101.22 12.4136 101.172 11.8193 101.078 11.6297C100.983 11.4401 100.673 11.3235 100.148 11.2797L99.3167 11.2141Z" fill="#4215CC"/>
<path d="M112 18.629C112.061 18.4465 112.127 18.2553 112.197 18.0554C112.315 17.7295 112.403 17.4666 112.46 17.2667H117.082L117.2 17.4036C116.99 17.8903 116.847 18.3335 116.773 18.7333H112.105L112 18.629Z" fill="#4215CC"/>
<path d="M117.867 25.9984V24.8409L118.534 24.7753C119.022 24.7315 119.442 24.2831 119.792 23.4299L123.85 13.6189L125.133 10H126.733L132.512 23.7909C132.767 24.3742 133.179 24.7023 133.748 24.7753L134.284 24.8409V25.9984C132.333 25.9984 131.144 25.9984 130.743 25.9984C130.298 25.9984 129.133 25.9984 127.339 25.9984V24.8409L128.531 24.7753C128.655 24.768 128.757 24.706 128.837 24.5893C128.925 24.4726 128.968 24.3341 128.968 24.1737C128.968 23.9695 128.925 23.7617 128.837 23.5502L127.831 20.9908H122.209L121.268 23.4955C121.203 23.6851 121.17 23.8711 121.17 24.0534C121.17 24.2502 121.228 24.418 121.345 24.5565C121.469 24.695 121.626 24.768 121.815 24.7753L122.931 24.8409V25.9984C122.362 25.9838 121.943 26.0057 121.659 25.9984C121.033 25.9984 120.578 25.9984 120.352 25.9984H117.867ZM122.756 19.733H127.317L124.987 14.0454L122.756 19.733Z" fill="#4215CC"/>
<path d="M135.707 25.9984V24.7753L136.538 24.7096C137.005 24.6732 137.293 24.593 137.402 24.469C137.541 24.3159 137.61 23.6851 137.61 22.5768V13.4438C137.61 12.4449 137.563 11.5173 137.468 11.3277C137.373 11.1381 137.063 11.0214 136.538 10.9777L135.733 10.9V10C137.533 10 138.682 10 139.2 10C139.71 10 140.859 10 142.667 10V10.9L141.843 10.9777C141.369 11.0141 141.077 11.0943 140.968 11.2183C140.837 11.3787 140.771 12.3428 140.771 13.4438V22.5768C140.771 23.583 140.819 24.181 140.913 24.3706C141.008 24.5529 141.318 24.6659 141.843 24.7096L142.667 24.7667V26C141.026 26 139.833 25.9984 139.148 25.9984C138.455 25.9984 137.333 25.9984 135.707 25.9984Z" fill="#4215CC"/>
</svg>
