<?xml version="1.0" standalone="no"?>
<!DOCTYPE svg PUBLIC "-//W3C//DTD SVG 20010904//EN"
 "http://www.w3.org/TR/2001/REC-SVG-20010904/DTD/svg10.dtd">
<svg version="1.0" xmlns="http://www.w3.org/2000/svg"
 width="500.000000pt" height="102.000000pt" viewBox="0 0 500.000000 102.000000"
 preserveAspectRatio="xMidYMid meet">

<g transform="translate(0.000000,102.000000) scale(0.100000,-0.100000)"
fill="#000000" stroke="none">
<path d="M241 865 c-46 -9 -69 -19 -82 -36 -23 -31 -12 -42 49 -49 l47 -5 5
-120 c4 -108 8 -125 32 -167 16 -25 39 -56 53 -67 l26 -19 -16 -67 c-11 -51
-13 -77 -5 -113 18 -80 19 -82 51 -82 33 0 35 8 18 80 -11 49 7 186 21 159 4
-8 18 -65 30 -126 l23 -113 34 0 c18 0 33 2 33 4 0 3 -11 56 -25 120 -14 64
-25 120 -25 126 0 6 29 10 70 10 39 0 70 -3 70 -7 0 -5 -11 -61 -25 -126 -14
-64 -25 -119 -25 -122 0 -3 15 -5 33 -5 l33 0 23 118 c13 64 27 120 31 125 3
4 12 -21 18 -55 9 -49 8 -77 -2 -125 l-14 -63 34 0 c27 0 35 5 39 23 21 95 22
109 9 172 -11 51 -11 76 -3 110 18 72 -3 137 -65 202 -55 56 -85 66 -122 38
-27 -20 -27 -20 -79 25 -61 53 -83 52 -146 -7 l-50 -47 3 112 c3 128 13 119
-101 97z m33 -36 c-3 -5 -10 -7 -15 -3 -5 3 -7 10 -3 15 3 5 10 7 15 3 5 -3 7
-10 3 -15z"/>
<path d="M1201 665 c-102 -29 -160 -82 -187 -171 -39 -131 13 -261 130 -321
98 -51 306 -39 337 19 15 28 8 30 -42 12 -64 -23 -157 -20 -208 6 -146 74
-158 334 -19 406 17 9 56 18 87 21 46 4 64 0 101 -19 39 -21 45 -29 48 -61 4
-49 28 -48 36 1 12 77 9 88 -31 101 -62 20 -191 23 -252 6z"/>
<path d="M4261 658 c-5 -13 -35 -86 -65 -163 -107 -270 -121 -299 -149 -313
-15 -7 -27 -20 -27 -28 0 -11 18 -14 85 -14 66 0 85 3 85 14 0 8 -13 19 -30
25 -35 12 -37 24 -10 85 l19 46 94 0 94 0 22 -56 c11 -31 21 -58 21 -60 0 -3
-13 -10 -30 -15 -16 -6 -30 -17 -30 -25 0 -11 24 -14 120 -14 101 0 120 2 120
15 0 9 -11 20 -24 25 -13 5 -28 15 -33 22 -4 7 -51 116 -104 243 -89 211 -99
230 -123 233 -19 3 -28 -3 -35 -20z m7 -306 c-39 -2 -73 -1 -75 2 -3 3 7 36
22 73 15 37 32 79 37 93 9 23 13 17 48 -70 l38 -95 -70 -3z"/>
<path d="M4630 666 c0 -7 14 -16 30 -20 l30 -6 -2 -227 -3 -228 -27 -3 c-20
-2 -28 -9 -28 -23 0 -18 8 -19 115 -19 107 0 115 1 115 19 0 14 -8 21 -27 23
l-28 3 -3 228 -2 227 30 6 c16 4 30 13 30 20 0 11 -24 14 -115 14 -91 0 -115
-3 -115 -14z"/>
<path d="M1783 653 c-19 -56 -178 -440 -187 -452 -5 -7 -20 -17 -33 -22 -13
-5 -23 -15 -23 -24 0 -12 15 -15 85 -15 78 0 85 2 85 20 0 14 -7 20 -24 20
-33 0 -36 16 -16 75 l17 50 97 3 96 3 20 -46 c27 -64 26 -85 -5 -85 -18 0 -25
-5 -25 -20 0 -19 7 -20 115 -20 108 0 115 1 115 20 0 13 -7 20 -20 20 -27 0
-35 15 -141 268 -90 215 -94 222 -122 222 -17 0 -30 -6 -34 -17z m41 -202 c20
-45 36 -87 36 -92 0 -5 -34 -9 -76 -9 -57 0 -75 3 -71 13 3 6 20 49 38 95 18
45 33 81 35 79 2 -1 19 -40 38 -86z"/>
<path d="M2150 656 c0 -9 12 -16 28 -18 l27 -3 0 -225 0 -225 -27 -3 c-20 -2
-28 -9 -28 -23 0 -17 8 -19 86 -19 76 0 85 2 82 18 -2 9 -14 18 -26 20 -14 2
-27 14 -33 28 -11 30 -12 354 -1 354 4 -1 51 -94 105 -208 53 -114 102 -207
108 -207 7 0 55 91 109 203 53 111 100 205 103 209 10 9 8 -349 -1 -363 -4 -7
-18 -14 -32 -15 -14 -2 -26 -12 -28 -22 -3 -15 8 -17 117 -17 114 0 121 1 121
20 0 15 -7 20 -25 20 -39 0 -45 32 -44 228 1 207 5 226 42 230 15 2 27 10 27
18 0 11 -18 14 -87 14 l-88 -1 -79 -170 c-44 -94 -85 -177 -91 -186 -9 -12
-28 21 -100 171 l-89 186 -88 0 c-70 0 -88 -3 -88 -14z"/>
<path d="M2920 656 c0 -9 12 -16 28 -18 l27 -3 3 -224 c2 -193 0 -226 -13
-233 -8 -5 -15 -16 -15 -23 0 -13 30 -15 184 -15 l183 0 7 61 c3 34 3 66 -1
72 -8 13 -33 -20 -33 -45 0 -28 -32 -38 -119 -38 l-81 0 0 105 0 106 66 -3
c68 -3 74 -7 88 -51 13 -40 26 -2 26 74 0 62 -3 79 -14 79 -9 0 -16 -12 -18
-27 -3 -27 -5 -28 -75 -31 l-73 -3 0 89 c0 102 0 102 92 102 67 0 98 -14 98
-44 0 -22 16 -44 25 -35 2 2 6 30 10 62 l7 57 -201 0 c-168 0 -201 -2 -201
-14z"/>
<path d="M3390 656 c0 -7 14 -16 30 -19 l30 -6 0 -221 c0 -209 -1 -220 -20
-232 -11 -7 -20 -19 -20 -26 0 -10 40 -12 188 -10 l187 3 3 68 c2 52 0 68 -10
65 -7 -3 -16 -19 -19 -38 -4 -18 -13 -36 -21 -41 -7 -5 -50 -9 -95 -9 l-83 0
0 220 0 221 30 6 c17 3 30 12 30 19 0 11 -24 14 -115 14 -91 0 -115 -3 -115
-14z"/>
<path d="M3830 421 c0 -5 -3 -16 -6 -25 -5 -14 5 -16 74 -16 64 0 81 3 86 16
12 31 5 34 -74 34 -44 0 -80 -4 -80 -9z"/>
</g>
</svg>
